<svg width="315" height="80" viewBox="0 0 315 80" fill="none" xmlns="http://www.w3.org/2000/svg">
<g clip-path="url(#clip0_613_18)">
<mask id="mask0_613_18" style="mask-type:luminance" maskUnits="userSpaceOnUse" x="0" y="0" width="315" height="80">
<path d="M314.81 0H0V80H314.81V0Z" fill="white"/>
</mask>
<g mask="url(#mask0_613_18)">
<path fill-rule="evenodd" clip-rule="evenodd" d="M0 30.7653L4.91417 38.6296L20.8251 28.6873V24.5804H27.3975L54.1489 7.86431L49.2347 0L0 30.7653ZM6.46268 41.1078L20.8251 32.1332V36.1435H31.9069L11.3768 48.9721L6.46268 41.1078ZM25.2602 43.7429L37.4219 36.1435H54.9216L42.7599 43.7429H25.2602ZM59.1843 24.5804V33.4799L67.0745 28.5495L62.1603 20.6852L55.9266 24.5804H59.1843ZM20.8251 55.306H24.2551L17.8398 59.3148L12.9256 51.4505L20.8251 46.5143V55.306ZM47.2693 55.306H29.7696L19.3882 61.793L24.3024 69.6573L47.2693 55.306ZM59.1843 43.7429V47.8607L73.5371 38.8921L68.6229 31.0277L48.2744 43.7429H59.1843ZM59.1843 55.306H52.784L25.8512 72.1355L30.7653 79.9999L80 49.2346L75.0859 41.3703L59.1843 51.3067V55.306ZM32.912 24.5804H50.4117L60.6116 18.2069L55.6974 10.3425L32.912 24.5804ZM225.958 8.43293C227.827 8.43293 229.329 8.91199 230.464 9.86332C231.602 10.818 232.169 12.048 232.169 13.6686C232.169 15.2893 231.598 16.5804 230.464 17.5317C229.325 18.4864 227.786 18.9621 225.958 18.9621C224.13 18.9621 222.639 18.4864 221.484 17.5317C220.325 16.5804 219.747 15.2519 219.747 13.6686C219.747 12.0854 220.328 10.818 221.484 9.86332C222.642 8.91199 224.09 8.43293 225.958 8.43293ZM116.412 22.0062C119.82 22.0062 122.813 22.7673 125.388 24.2894V24.2928C127.964 25.815 129.982 27.9453 131.443 30.6837C132.904 33.4222 133.634 36.6567 133.634 40.2684C133.634 43.88 132.904 47.0534 131.443 49.7919C129.982 52.5303 127.964 54.6606 125.388 56.1828C122.813 57.7049 119.82 58.466 116.412 58.466C113.164 58.466 110.252 57.7151 107.677 56.2133C105.098 54.7116 102.937 52.5915 101.194 49.853C101.165 49.8077 101.138 49.7625 101.112 49.7172L101.083 49.6677L101.072 49.6492V67.5919H90.9095V22.9202H101.072V30.7721L101.163 30.6192C102.889 27.8807 105.061 25.7606 107.677 24.2589C110.296 22.7571 113.205 22.0062 116.412 22.0062ZM118.665 49.2415C120.126 48.3683 121.271 47.1621 122.103 45.6196C122.932 44.0805 123.35 42.2934 123.35 40.265C123.35 38.2366 122.935 36.4427 122.103 34.8798C121.271 33.3169 120.126 32.1005 118.665 31.2273C117.204 30.3542 115.518 29.9193 113.612 29.9193C111.706 29.9193 109.902 30.3542 108.197 31.2273C106.491 32.1005 104.999 33.3169 103.722 34.8798C102.441 36.4427 101.439 38.2366 100.708 40.265C101.439 42.2934 102.444 44.0771 103.722 45.6196C105.003 47.1621 106.491 48.3683 108.197 49.2415C109.899 50.1146 111.706 50.5495 113.612 50.5495C115.518 50.5495 117.204 50.1146 118.665 49.2415ZM171.307 22.9236L171.308 22.9202L171.304 22.9236H171.307ZM170.431 30.5852L171.307 22.9236H181.833L179.825 40.2683L181.833 57.552H171.304L170.417 49.8598C168.695 52.5949 166.527 54.715 163.911 56.2133C161.295 57.715 158.485 58.4659 155.118 58.4659C151.751 58.4659 148.768 57.7049 146.172 56.1827C143.576 54.6606 141.558 52.5303 140.118 49.7918C138.677 47.0534 137.957 43.9208 137.957 40.2683C137.957 36.6159 138.677 33.4222 140.118 30.6837C141.555 27.9452 143.576 25.8149 146.172 24.2928C148.768 22.7707 151.873 22.0096 155.118 22.0096C158.363 22.0096 161.295 22.7605 163.911 24.2622C166.517 25.7538 168.691 27.8637 170.431 30.5852ZM157.979 50.5495C159.885 50.5495 161.679 50.1146 163.364 49.2414C165.049 48.3682 166.541 47.1621 167.839 45.6196C169.136 44.0805 170.152 42.2933 170.883 40.2649C170.152 38.2366 169.136 36.4426 167.839 34.8797C166.537 33.3168 165.046 32.1005 163.364 31.2273C161.682 30.3541 159.888 29.9192 157.979 29.9192C156.069 29.9192 154.387 30.3541 152.926 31.2273C151.466 32.1005 150.321 33.3168 149.488 34.8797C148.656 36.4426 148.241 38.2366 148.241 40.2649C148.241 42.2933 148.656 44.0771 149.488 45.6196C150.321 47.1621 151.466 48.3682 152.926 49.2414C154.387 50.1146 156.073 50.5495 157.979 50.5495ZM211.657 22.0062C209.302 22.0062 207.274 22.4853 205.572 23.4366C203.866 24.3914 202.436 25.6892 201.281 27.3303C200.275 28.7607 199.459 30.3915 198.838 32.2228L197.295 22.9202H187.011L189.202 34.3022V57.552H199.364V42.5788C199.364 39.8607 199.83 37.6081 200.764 35.8243C201.699 34.0406 202.976 32.7189 204.6 31.8695C206.221 31.0167 208.049 30.592 210.077 30.592C211.011 30.592 212.003 30.6532 213.06 30.7755C214.113 30.8978 215.17 31.0812 216.223 31.3225V22.5601C215.534 22.397 214.793 22.2645 214.001 22.1659C213.21 22.064 212.428 22.013 211.657 22.013V22.0062ZM220.91 22.5534V57.5488H231.075V22.5534L225.962 23.5285L220.91 22.5534ZM254.291 48.8135C255.409 49.8905 257.345 50.4273 260.104 50.4273L260.097 50.4239C261.84 50.4239 263.383 50.2642 264.721 49.9381C266.064 49.6153 267.341 49.1464 268.557 48.5383V56.4513C267.382 56.9371 265.819 57.3958 263.872 57.8205C261.925 58.2452 259.917 58.4593 257.848 58.4593C254.236 58.4593 251.308 57.8817 249.055 56.7265C246.803 55.5713 245.138 53.9574 244.064 51.8883C242.987 49.8192 242.45 47.4035 242.45 44.6446V30.5853H235.206V26.0835L242.45 23.7086L246.772 13.7875H252.616V22.9169H267.953V30.5853H252.616V43.1836C252.616 45.861 253.173 47.7398 254.291 48.8135ZM304.045 22.9203L292.64 48.9562L281.404 22.9203H270.205L285.481 55.3573H289.833L289.619 55.8431C288.766 57.7492 287.693 59.0777 286.395 59.8285C285.097 60.5794 283.616 60.9531 281.951 60.9531C280.085 60.9531 278.38 60.7085 276.837 60.2226C275.295 59.7368 273.674 58.9451 271.969 57.8477V65.1526C273.589 66.2466 275.315 67.079 277.143 67.6464C278.968 68.2138 281.016 68.4992 283.289 68.4992C285.195 68.4992 287.034 68.1934 288.797 67.5853C290.56 66.9771 292.195 65.9816 293.696 64.6022C295.198 63.2227 296.476 61.3982 297.529 59.1252L314.812 22.9135H304.039L304.045 22.9203Z" fill="white"/>
</g>
</g>
<defs>
<clipPath id="clip0_613_18">
<rect width="315" height="80" fill="white"/>
</clipPath>
</defs>
</svg>
